<svg xmlns="http://www.w3.org/2000/svg" width="900" height="620">
<rect width="100%" height="100%" fill="white" />
<text x="450.00" y="28.00" font-size="20" text-anchor="middle" font-family="Arial">Step-by-step cost vs predicted step</text>
<line x1="80.00" y1="50" x2="80.00" y2="550" stroke="#eeeeee" />
<text x="80.00" y="570.00" font-size="12" text-anchor="middle" font-family="Arial">-1</text>
<line x1="192.86" y1="50" x2="192.86" y2="550" stroke="#eeeeee" />
<text x="192.86" y="570.00" font-size="12" text-anchor="middle" font-family="Arial">0</text>
<line x1="305.71" y1="50" x2="305.71" y2="550" stroke="#eeeeee" />
<text x="305.71" y="570.00" font-size="12" text-anchor="middle" font-family="Arial">1</text>
<line x1="418.57" y1="50" x2="418.57" y2="550" stroke="#eeeeee" />
<text x="418.57" y="570.00" font-size="12" text-anchor="middle" font-family="Arial">2</text>
<line x1="531.43" y1="50" x2="531.43" y2="550" stroke="#eeeeee" />
<text x="531.43" y="570.00" font-size="12" text-anchor="middle" font-family="Arial">3</text>
<line x1="644.29" y1="50" x2="644.29" y2="550" stroke="#eeeeee" />
<text x="644.29" y="570.00" font-size="12" text-anchor="middle" font-family="Arial">4</text>
<line x1="757.14" y1="50" x2="757.14" y2="550" stroke="#eeeeee" />
<text x="757.14" y="570.00" font-size="12" text-anchor="middle" font-family="Arial">5</text>
<line x1="870.00" y1="50" x2="870.00" y2="550" stroke="#eeeeee" />
<text x="870.00" y="570.00" font-size="12" text-anchor="middle" font-family="Arial">6</text>
<line x1="80" y1="550.00" x2="870" y2="550.00" stroke="#eeeeee" />
<text x="70.00" y="554.00" font-size="12" text-anchor="end" font-family="Arial">646</text>
<line x1="80" y1="466.67" x2="870" y2="466.67" stroke="#eeeeee" />
<text x="70.00" y="470.67" font-size="12" text-anchor="end" font-family="Arial">2389</text>
<line x1="80" y1="383.33" x2="870" y2="383.33" stroke="#eeeeee" />
<text x="70.00" y="387.33" font-size="12" text-anchor="end" font-family="Arial">4132</text>
<line x1="80" y1="300.00" x2="870" y2="300.00" stroke="#eeeeee" />
<text x="70.00" y="304.00" font-size="12" text-anchor="end" font-family="Arial">5874</text>
<line x1="80" y1="216.67" x2="870" y2="216.67" stroke="#eeeeee" />
<text x="70.00" y="220.67" font-size="12" text-anchor="end" font-family="Arial">7617</text>
<line x1="80" y1="133.33" x2="870" y2="133.33" stroke="#eeeeee" />
<text x="70.00" y="137.33" font-size="12" text-anchor="end" font-family="Arial">9360</text>
<line x1="80" y1="50.00" x2="870" y2="50.00" stroke="#eeeeee" />
<text x="70.00" y="54.00" font-size="12" text-anchor="end" font-family="Arial">11103</text>
<line x1="80" y1="50" x2="80" y2="550" stroke="black" />
<line x1="80" y1="550" x2="870" y2="550" stroke="black" />
<text x="450.00" y="602.00" font-size="14" text-anchor="middle" font-family="Arial">Predicted step</text>
<text x="24.00" y="300.00" font-size="14" text-anchor="start" font-family="Arial">Total tokens</text>
<circle cx="305.71" cy="472.06" r="4" fill="red" stroke="none" stroke-width="1" />
<circle cx="305.71" cy="508.74" r="4" fill="red" stroke="none" stroke-width="1" />
<circle cx="192.86" cy="530.97" r="4" fill="red" stroke="none" stroke-width="1" />
<circle cx="418.57" cy="433.76" r="4" fill="navy" stroke="none" stroke-width="1" />
<circle cx="305.71" cy="480.62" r="4" fill="red" stroke="none" stroke-width="1" />
<circle cx="192.86" cy="542.68" r="4" fill="red" stroke="none" stroke-width="1" />
<circle cx="418.57" cy="449.83" r="4" fill="red" stroke="none" stroke-width="1" />
<circle cx="192.86" cy="487.98" r="4" fill="red" stroke="none" stroke-width="1" />
<circle cx="192.86" cy="518.73" r="4" fill="red" stroke="none" stroke-width="1" />
<circle cx="305.71" cy="511.46" r="4" fill="red" stroke="none" stroke-width="1" />
<circle cx="418.57" cy="461.02" r="4" fill="red" stroke="none" stroke-width="1" />
<circle cx="192.86" cy="542.97" r="4" fill="red" stroke="none" stroke-width="1" />
<circle cx="418.57" cy="398.14" r="4" fill="red" stroke="none" stroke-width="1" />
<circle cx="192.86" cy="541.30" r="4" fill="red" stroke="none" stroke-width="1" />
<circle cx="192.86" cy="533.65" r="4" fill="red" stroke="none" stroke-width="1" />
<circle cx="192.86" cy="542.88" r="4" fill="red" stroke="none" stroke-width="1" />
<circle cx="192.86" cy="545.46" r="4" fill="red" stroke="none" stroke-width="1" />
<circle cx="531.43" cy="427.69" r="4" fill="red" stroke="none" stroke-width="1" />
<circle cx="192.86" cy="537.66" r="4" fill="navy" stroke="none" stroke-width="1" />
<circle cx="192.86" cy="523.41" r="4" fill="navy" stroke="none" stroke-width="1" />
<circle cx="192.86" cy="550.00" r="4" fill="navy" stroke="none" stroke-width="1" />
<circle cx="80.00" cy="193.68" r="4" fill="red" stroke="none" stroke-width="1" />
<circle cx="418.57" cy="447.58" r="4" fill="red" stroke="none" stroke-width="1" />
<circle cx="305.71" cy="509.02" r="4" fill="red" stroke="none" stroke-width="1" />
<circle cx="418.57" cy="331.63" r="4" fill="red" stroke="none" stroke-width="1" />
<circle cx="192.86" cy="545.94" r="4" fill="red" stroke="none" stroke-width="1" />
<circle cx="418.57" cy="369.98" r="4" fill="red" stroke="none" stroke-width="1" />
<circle cx="192.86" cy="521.65" r="4" fill="red" stroke="none" stroke-width="1" />
<circle cx="305.71" cy="436.06" r="4" fill="red" stroke="none" stroke-width="1" />
<circle cx="305.71" cy="473.74" r="4" fill="red" stroke="none" stroke-width="1" />
<circle cx="418.57" cy="386.95" r="4" fill="red" stroke="none" stroke-width="1" />
<circle cx="418.57" cy="469.43" r="4" fill="red" stroke="none" stroke-width="1" />
<circle cx="757.14" cy="50.00" r="4" fill="red" stroke="none" stroke-width="1" />
<circle cx="305.71" cy="492.86" r="4" fill="red" stroke="none" stroke-width="1" />
<circle cx="192.86" cy="537.52" r="4" fill="red" stroke="none" stroke-width="1" />
<circle cx="192.86" cy="520.79" r="4" fill="red" stroke="none" stroke-width="1" />
<circle cx="305.71" cy="453.99" r="4" fill="navy" stroke="none" stroke-width="1" />
<circle cx="531.43" cy="411.72" r="4" fill="red" stroke="none" stroke-width="1" />
<circle cx="192.86" cy="521.45" r="4" fill="red" stroke="none" stroke-width="1" />
<circle cx="418.57" cy="406.99" r="4" fill="red" stroke="none" stroke-width="1" />
<circle cx="192.86" cy="529.10" r="4" fill="red" stroke="none" stroke-width="1" />
<circle cx="305.71" cy="486.02" r="4" fill="navy" stroke="none" stroke-width="1" />
<circle cx="192.86" cy="527.96" r="4" fill="navy" stroke="none" stroke-width="1" />
<circle cx="418.57" cy="416.60" r="4" fill="red" stroke="none" stroke-width="1" />
<circle cx="192.86" cy="540.29" r="4" fill="red" stroke="none" stroke-width="1" />
<circle cx="192.86" cy="509.69" r="4" fill="red" stroke="none" stroke-width="1" />
<circle cx="305.71" cy="478.95" r="4" fill="navy" stroke="none" stroke-width="1" />
<circle cx="192.86" cy="541.15" r="4" fill="red" stroke="none" stroke-width="1" />
<circle cx="305.71" cy="492.43" r="4" fill="red" stroke="none" stroke-width="1" />
<circle cx="305.71" cy="500.99" r="4" fill="red" stroke="none" stroke-width="1" />
<circle cx="192.86" cy="541.78" r="4" fill="navy" stroke="none" stroke-width="1" />
<circle cx="531.43" cy="392.64" r="4" fill="red" stroke="none" stroke-width="1" />
<circle cx="192.86" cy="546.80" r="4" fill="red" stroke="none" stroke-width="1" />
<circle cx="192.86" cy="546.32" r="4" fill="red" stroke="none" stroke-width="1" />
<circle cx="192.86" cy="534.94" r="4" fill="red" stroke="none" stroke-width="1" />
<circle cx="418.57" cy="448.54" r="4" fill="red" stroke="none" stroke-width="1" />
<circle cx="305.71" cy="404.69" r="4" fill="red" stroke="none" stroke-width="1" />
<circle cx="305.71" cy="498.69" r="4" fill="navy" stroke="none" stroke-width="1" />
<circle cx="192.86" cy="525.18" r="4" fill="red" stroke="none" stroke-width="1" />
<circle cx="192.86" cy="546.89" r="4" fill="red" stroke="none" stroke-width="1" />
<circle cx="305.71" cy="484.88" r="4" fill="red" stroke="none" stroke-width="1" />
<circle cx="192.86" cy="526.19" r="4" fill="red" stroke="none" stroke-width="1" />
<circle cx="192.86" cy="528.53" r="4" fill="red" stroke="none" stroke-width="1" />
<circle cx="192.86" cy="534.08" r="4" fill="red" stroke="none" stroke-width="1" />
<circle cx="418.57" cy="456.04" r="4" fill="red" stroke="none" stroke-width="1" />
<circle cx="531.43" cy="404.83" r="4" fill="red" stroke="none" stroke-width="1" />
<circle cx="305.71" cy="491.00" r="4" fill="red" stroke="none" stroke-width="1" />
<circle cx="192.86" cy="529.54" r="4" fill="red" stroke="none" stroke-width="1" />
<circle cx="418.57" cy="459.92" r="4" fill="red" stroke="none" stroke-width="1" />
<circle cx="192.86" cy="538.19" r="4" fill="navy" stroke="none" stroke-width="1" />
<circle cx="305.71" cy="507.88" r="4" fill="navy" stroke="none" stroke-width="1" />
<circle cx="305.71" cy="512.75" r="4" fill="red" stroke="none" stroke-width="1" />
<circle cx="305.71" cy="502.57" r="4" fill="navy" stroke="none" stroke-width="1" />
<circle cx="418.57" cy="469.48" r="4" fill="red" stroke="none" stroke-width="1" />
<circle cx="531.43" cy="344.68" r="4" fill="red" stroke="none" stroke-width="1" />
<circle cx="192.86" cy="536.42" r="4" fill="red" stroke="none" stroke-width="1" />
<circle cx="305.71" cy="488.75" r="4" fill="red" stroke="none" stroke-width="1" />
<circle cx="418.57" cy="456.57" r="4" fill="red" stroke="none" stroke-width="1" />
<circle cx="644.29" cy="193.21" r="4" fill="red" stroke="none" stroke-width="1" />
<circle cx="192.86" cy="523.03" r="4" fill="navy" stroke="none" stroke-width="1" />
<circle cx="644.29" cy="380.11" r="4" fill="red" stroke="none" stroke-width="1" />
<circle cx="418.57" cy="403.02" r="4" fill="red" stroke="none" stroke-width="1" />
<circle cx="192.86" cy="541.35" r="4" fill="red" stroke="none" stroke-width="1" />
<circle cx="305.71" cy="506.30" r="4" fill="red" stroke="none" stroke-width="1" />
<circle cx="192.86" cy="536.61" r="4" fill="red" stroke="none" stroke-width="1" />
<circle cx="192.86" cy="529.10" r="4" fill="navy" stroke="none" stroke-width="1" />
<circle cx="305.71" cy="489.37" r="4" fill="navy" stroke="none" stroke-width="1" />
<circle cx="192.86" cy="529.10" r="4" fill="navy" stroke="none" stroke-width="1" />
<circle cx="192.86" cy="545.12" r="4" fill="red" stroke="none" stroke-width="1" />
<circle cx="644.29" cy="102.60" r="4" fill="red" stroke="none" stroke-width="1" />
<circle cx="305.71" cy="477.80" r="4" fill="red" stroke="none" stroke-width="1" />
<circle cx="192.86" cy="544.26" r="4" fill="navy" stroke="none" stroke-width="1" />
<circle cx="305.71" cy="506.82" r="4" fill="red" stroke="none" stroke-width="1" />
<circle cx="305.71" cy="516.77" r="4" fill="red" stroke="none" stroke-width="1" />
<circle cx="192.86" cy="533.12" r="4" fill="red" stroke="none" stroke-width="1" />
<circle cx="418.57" cy="435.15" r="4" fill="red" stroke="none" stroke-width="1" />
<circle cx="531.43" cy="416.26" r="4" fill="red" stroke="none" stroke-width="1" />
<circle cx="418.57" cy="221.03" r="4" fill="red" stroke="none" stroke-width="1" />
<circle cx="305.71" cy="472.06" r="4" fill="red" stroke="none" stroke-width="1" />
<circle cx="192.86" cy="533.79" r="4" fill="red" stroke="none" stroke-width="1" />
<circle cx="644.29" cy="311.69" r="4" fill="red" stroke="none" stroke-width="1" />
<circle cx="757.14" cy="225.29" r="4" fill="red" stroke="none" stroke-width="1" />
<circle cx="192.86" cy="541.87" r="4" fill="red" stroke="none" stroke-width="1" />
<circle cx="192.86" cy="546.51" r="4" fill="navy" stroke="none" stroke-width="1" />
<circle cx="870.00" cy="70.46" r="4" fill="navy" stroke="none" stroke-width="1" />
<circle cx="192.86" cy="538.29" r="4" fill="navy" stroke="none" stroke-width="1" />
<circle cx="531.43" cy="401.53" r="4" fill="red" stroke="none" stroke-width="1" />
<circle cx="192.86" cy="540.68" r="4" fill="red" stroke="none" stroke-width="1" />
<circle cx="192.86" cy="542.11" r="4" fill="red" stroke="none" stroke-width="1" />
<circle cx="192.86" cy="537.57" r="4" fill="red" stroke="none" stroke-width="1" />
<circle cx="192.86" cy="536.23" r="4" fill="red" stroke="none" stroke-width="1" />
<circle cx="192.86" cy="516.58" r="4" fill="red" stroke="none" stroke-width="1" />
<circle cx="644.29" cy="80.46" r="4" fill="red" stroke="none" stroke-width="1" />
<circle cx="418.57" cy="372.08" r="4" fill="red" stroke="none" stroke-width="1" />
<circle cx="305.71" cy="482.01" r="4" fill="navy" stroke="none" stroke-width="1" />
<circle cx="418.57" cy="447.01" r="4" fill="red" stroke="none" stroke-width="1" />
<circle cx="192.86" cy="544.98" r="4" fill="navy" stroke="none" stroke-width="1" />
<circle cx="418.57" cy="411.91" r="4" fill="red" stroke="none" stroke-width="1" />
<circle cx="192.86" cy="527.81" r="4" fill="navy" stroke="none" stroke-width="1" />
<circle cx="192.86" cy="533.79" r="4" fill="red" stroke="none" stroke-width="1" />
<circle cx="192.86" cy="547.47" r="4" fill="red" stroke="none" stroke-width="1" />
<circle cx="192.86" cy="543.54" r="4" fill="red" stroke="none" stroke-width="1" />
<circle cx="192.86" cy="544.26" r="4" fill="red" stroke="none" stroke-width="1" />
<circle cx="531.43" cy="433.57" r="4" fill="red" stroke="none" stroke-width="1" />
<circle cx="531.43" cy="401.01" r="4" fill="red" stroke="none" stroke-width="1" />
<circle cx="418.57" cy="419.61" r="4" fill="red" stroke="none" stroke-width="1" />
</svg>