<svg xmlns="http://www.w3.org/2000/svg" width="1400" height="640">
<rect width="100%" height="100%" fill="white" />
<text x="700.00" y="28.00" font-size="20" text-anchor="middle" font-family="Arial">Step-by-step prediction outcomes by sample</text>
<line x1="70" y1="570.00" x2="1370" y2="570.00" stroke="#dddddd" stroke-dasharray="4,4" />
<text x="60.00" y="574.00" font-size="12" text-anchor="end" font-family="Arial">0</text>
<line x1="70" y1="512.22" x2="1370" y2="512.22" stroke="#dddddd" stroke-dasharray="4,4" />
<text x="60.00" y="516.22" font-size="12" text-anchor="end" font-family="Arial">1</text>
<line x1="70" y1="454.44" x2="1370" y2="454.44" stroke="#dddddd" stroke-dasharray="4,4" />
<text x="60.00" y="458.44" font-size="12" text-anchor="end" font-family="Arial">2</text>
<line x1="70" y1="396.67" x2="1370" y2="396.67" stroke="#dddddd" stroke-dasharray="4,4" />
<text x="60.00" y="400.67" font-size="12" text-anchor="end" font-family="Arial">3</text>
<line x1="70" y1="338.89" x2="1370" y2="338.89" stroke="#dddddd" stroke-dasharray="4,4" />
<text x="60.00" y="342.89" font-size="12" text-anchor="end" font-family="Arial">4</text>
<line x1="70" y1="281.11" x2="1370" y2="281.11" stroke="#dddddd" stroke-dasharray="4,4" />
<text x="60.00" y="285.11" font-size="12" text-anchor="end" font-family="Arial">5</text>
<line x1="70" y1="223.33" x2="1370" y2="223.33" stroke="#dddddd" stroke-dasharray="4,4" />
<text x="60.00" y="227.33" font-size="12" text-anchor="end" font-family="Arial">6</text>
<line x1="70" y1="165.56" x2="1370" y2="165.56" stroke="#dddddd" stroke-dasharray="4,4" />
<text x="60.00" y="169.56" font-size="12" text-anchor="end" font-family="Arial">7</text>
<line x1="70" y1="107.78" x2="1370" y2="107.78" stroke="#dddddd" stroke-dasharray="4,4" />
<text x="60.00" y="111.78" font-size="12" text-anchor="end" font-family="Arial">8</text>
<line x1="70" y1="50.00" x2="1370" y2="50.00" stroke="#dddddd" stroke-dasharray="4,4" />
<text x="60.00" y="54.00" font-size="12" text-anchor="end" font-family="Arial">9</text>
<line x1="70" y1="50" x2="70" y2="570" stroke="black" />
<line x1="70" y1="570" x2="1370" y2="570" stroke="black" />
<text x="700.00" y="622.00" font-size="14" text-anchor="middle" font-family="Arial">Sample index (sorted by file name)</text>
<text x="20.00" y="310.00" font-size="14" text-anchor="start" font-family="Arial">Step index</text>
<line x1="70.00" y1="570.00" x2="70.00" y2="512.22" stroke="#bbbbbb" />
<circle cx="70.00" cy="570.00" r="4" fill="red" stroke="none" stroke-width="1" />
<circle cx="70.00" cy="512.22" r="4" fill="gold" stroke="black" stroke-width="1" />
<line x1="80.40" y1="454.44" x2="80.40" y2="512.22" stroke="#bbbbbb" />
<circle cx="80.40" cy="454.44" r="4" fill="red" stroke="none" stroke-width="1" />
<circle cx="80.40" cy="512.22" r="4" fill="gold" stroke="black" stroke-width="1" />
<line x1="90.80" y1="338.89" x2="90.80" y2="570.00" stroke="#bbbbbb" />
<circle cx="90.80" cy="338.89" r="4" fill="red" stroke="none" stroke-width="1" />
<circle cx="90.80" cy="570.00" r="4" fill="gold" stroke="black" stroke-width="1" />
<circle cx="101.20" cy="454.44" r="4" fill="navy" stroke="none" stroke-width="1" />
<line x1="111.60" y1="396.67" x2="111.60" y2="512.22" stroke="#bbbbbb" />
<circle cx="111.60" cy="396.67" r="4" fill="red" stroke="none" stroke-width="1" />
<circle cx="111.60" cy="512.22" r="4" fill="gold" stroke="black" stroke-width="1" />
<line x1="122.00" y1="512.22" x2="122.00" y2="570.00" stroke="#bbbbbb" />
<circle cx="122.00" cy="512.22" r="4" fill="red" stroke="none" stroke-width="1" />
<circle cx="122.00" cy="570.00" r="4" fill="gold" stroke="black" stroke-width="1" />
<line x1="132.40" y1="281.11" x2="132.40" y2="454.44" stroke="#bbbbbb" />
<circle cx="132.40" cy="281.11" r="4" fill="red" stroke="none" stroke-width="1" />
<circle cx="132.40" cy="454.44" r="4" fill="gold" stroke="black" stroke-width="1" />
<line x1="142.80" y1="338.89" x2="142.80" y2="570.00" stroke="#bbbbbb" />
<circle cx="142.80" cy="338.89" r="4" fill="red" stroke="none" stroke-width="1" />
<circle cx="142.80" cy="570.00" r="4" fill="gold" stroke="black" stroke-width="1" />
<line x1="153.20" y1="512.22" x2="153.20" y2="570.00" stroke="#bbbbbb" />
<circle cx="153.20" cy="512.22" r="4" fill="red" stroke="none" stroke-width="1" />
<circle cx="153.20" cy="570.00" r="4" fill="gold" stroke="black" stroke-width="1" />
<line x1="163.60" y1="281.11" x2="163.60" y2="512.22" stroke="#bbbbbb" />
<circle cx="163.60" cy="281.11" r="4" fill="red" stroke="none" stroke-width="1" />
<circle cx="163.60" cy="512.22" r="4" fill="gold" stroke="black" stroke-width="1" />
<line x1="174.00" y1="223.33" x2="174.00" y2="454.44" stroke="#bbbbbb" />
<circle cx="174.00" cy="223.33" r="4" fill="red" stroke="none" stroke-width="1" />
<circle cx="174.00" cy="454.44" r="4" fill="gold" stroke="black" stroke-width="1" />
<line x1="184.40" y1="512.22" x2="184.40" y2="570.00" stroke="#bbbbbb" />
<circle cx="184.40" cy="512.22" r="4" fill="red" stroke="none" stroke-width="1" />
<circle cx="184.40" cy="570.00" r="4" fill="gold" stroke="black" stroke-width="1" />
<line x1="194.80" y1="338.89" x2="194.80" y2="454.44" stroke="#bbbbbb" />
<circle cx="194.80" cy="338.89" r="4" fill="red" stroke="none" stroke-width="1" />
<circle cx="194.80" cy="454.44" r="4" fill="gold" stroke="black" stroke-width="1" />
<line x1="205.20" y1="454.44" x2="205.20" y2="570.00" stroke="#bbbbbb" />
<circle cx="205.20" cy="454.44" r="4" fill="red" stroke="none" stroke-width="1" />
<circle cx="205.20" cy="570.00" r="4" fill="gold" stroke="black" stroke-width="1" />
<line x1="215.60" y1="223.33" x2="215.60" y2="570.00" stroke="#bbbbbb" />
<circle cx="215.60" cy="223.33" r="4" fill="red" stroke="none" stroke-width="1" />
<circle cx="215.60" cy="570.00" r="4" fill="gold" stroke="black" stroke-width="1" />
<line x1="226.00" y1="512.22" x2="226.00" y2="570.00" stroke="#bbbbbb" />
<circle cx="226.00" cy="512.22" r="4" fill="red" stroke="none" stroke-width="1" />
<circle cx="226.00" cy="570.00" r="4" fill="gold" stroke="black" stroke-width="1" />
<line x1="236.40" y1="338.89" x2="236.40" y2="570.00" stroke="#bbbbbb" />
<circle cx="236.40" cy="338.89" r="4" fill="red" stroke="none" stroke-width="1" />
<circle cx="236.40" cy="570.00" r="4" fill="gold" stroke="black" stroke-width="1" />
<line x1="246.80" y1="165.56" x2="246.80" y2="396.67" stroke="#bbbbbb" />
<circle cx="246.80" cy="165.56" r="4" fill="red" stroke="none" stroke-width="1" />
<circle cx="246.80" cy="396.67" r="4" fill="gold" stroke="black" stroke-width="1" />
<circle cx="257.20" cy="570.00" r="4" fill="navy" stroke="none" stroke-width="1" />
<circle cx="267.60" cy="570.00" r="4" fill="navy" stroke="none" stroke-width="1" />
<circle cx="278.00" cy="570.00" r="4" fill="navy" stroke="none" stroke-width="1" />
<line x1="288.40" y1="570.00" x2="288.40" y2="627.78" stroke="#bbbbbb" />
<circle cx="288.40" cy="570.00" r="4" fill="red" stroke="none" stroke-width="1" />
<circle cx="288.40" cy="627.78" r="4" fill="gold" stroke="black" stroke-width="1" />
<line x1="298.80" y1="396.67" x2="298.80" y2="454.44" stroke="#bbbbbb" />
<circle cx="298.80" cy="396.67" r="4" fill="red" stroke="none" stroke-width="1" />
<circle cx="298.80" cy="454.44" r="4" fill="gold" stroke="black" stroke-width="1" />
<line x1="309.20" y1="570.00" x2="309.20" y2="512.22" stroke="#bbbbbb" />
<circle cx="309.20" cy="570.00" r="4" fill="red" stroke="none" stroke-width="1" />
<circle cx="309.20" cy="512.22" r="4" fill="gold" stroke="black" stroke-width="1" />
<line x1="319.60" y1="338.89" x2="319.60" y2="454.44" stroke="#bbbbbb" />
<circle cx="319.60" cy="338.89" r="4" fill="red" stroke="none" stroke-width="1" />
<circle cx="319.60" cy="454.44" r="4" fill="gold" stroke="black" stroke-width="1" />
<line x1="330.00" y1="396.67" x2="330.00" y2="570.00" stroke="#bbbbbb" />
<circle cx="330.00" cy="396.67" r="4" fill="red" stroke="none" stroke-width="1" />
<circle cx="330.00" cy="570.00" r="4" fill="gold" stroke="black" stroke-width="1" />
<line x1="340.40" y1="512.22" x2="340.40" y2="454.44" stroke="#bbbbbb" />
<circle cx="340.40" cy="512.22" r="4" fill="red" stroke="none" stroke-width="1" />
<circle cx="340.40" cy="454.44" r="4" fill="gold" stroke="black" stroke-width="1" />
<line x1="350.80" y1="107.78" x2="350.80" y2="570.00" stroke="#bbbbbb" />
<circle cx="350.80" cy="107.78" r="4" fill="red" stroke="none" stroke-width="1" />
<circle cx="350.80" cy="570.00" r="4" fill="gold" stroke="black" stroke-width="1" />
<line x1="361.20" y1="396.67" x2="361.20" y2="512.22" stroke="#bbbbbb" />
<circle cx="361.20" cy="396.67" r="4" fill="red" stroke="none" stroke-width="1" />
<circle cx="361.20" cy="512.22" r="4" fill="gold" stroke="black" stroke-width="1" />
<line x1="371.60" y1="396.67" x2="371.60" y2="512.22" stroke="#bbbbbb" />
<circle cx="371.60" cy="396.67" r="4" fill="red" stroke="none" stroke-width="1" />
<circle cx="371.60" cy="512.22" r="4" fill="gold" stroke="black" stroke-width="1" />
<line x1="382.00" y1="396.67" x2="382.00" y2="454.44" stroke="#bbbbbb" />
<circle cx="382.00" cy="396.67" r="4" fill="red" stroke="none" stroke-width="1" />
<circle cx="382.00" cy="454.44" r="4" fill="gold" stroke="black" stroke-width="1" />
<line x1="392.40" y1="512.22" x2="392.40" y2="454.44" stroke="#bbbbbb" />
<circle cx="392.40" cy="512.22" r="4" fill="red" stroke="none" stroke-width="1" />
<circle cx="392.40" cy="454.44" r="4" fill="gold" stroke="black" stroke-width="1" />
<line x1="402.80" y1="107.78" x2="402.80" y2="281.11" stroke="#bbbbbb" />
<circle cx="402.80" cy="107.78" r="4" fill="red" stroke="none" stroke-width="1" />
<circle cx="402.80" cy="281.11" r="4" fill="gold" stroke="black" stroke-width="1" />
<line x1="413.20" y1="338.89" x2="413.20" y2="512.22" stroke="#bbbbbb" />
<circle cx="413.20" cy="338.89" r="4" fill="red" stroke="none" stroke-width="1" />
<circle cx="413.20" cy="512.22" r="4" fill="gold" stroke="black" stroke-width="1" />
<line x1="423.60" y1="107.78" x2="423.60" y2="570.00" stroke="#bbbbbb" />
<circle cx="423.60" cy="107.78" r="4" fill="red" stroke="none" stroke-width="1" />
<circle cx="423.60" cy="570.00" r="4" fill="gold" stroke="black" stroke-width="1" />
<line x1="434.00" y1="454.44" x2="434.00" y2="570.00" stroke="#bbbbbb" />
<circle cx="434.00" cy="454.44" r="4" fill="red" stroke="none" stroke-width="1" />
<circle cx="434.00" cy="570.00" r="4" fill="gold" stroke="black" stroke-width="1" />
<circle cx="444.40" cy="512.22" r="4" fill="navy" stroke="none" stroke-width="1" />
<line x1="454.80" y1="454.44" x2="454.80" y2="396.67" stroke="#bbbbbb" />
<circle cx="454.80" cy="454.44" r="4" fill="red" stroke="none" stroke-width="1" />
<circle cx="454.80" cy="396.67" r="4" fill="gold" stroke="black" stroke-width="1" />
<line x1="465.20" y1="512.22" x2="465.20" y2="570.00" stroke="#bbbbbb" />
<circle cx="465.20" cy="512.22" r="4" fill="red" stroke="none" stroke-width="1" />
<circle cx="465.20" cy="570.00" r="4" fill="gold" stroke="black" stroke-width="1" />
<line x1="475.60" y1="396.67" x2="475.60" y2="454.44" stroke="#bbbbbb" />
<circle cx="475.60" cy="396.67" r="4" fill="red" stroke="none" stroke-width="1" />
<circle cx="475.60" cy="454.44" r="4" fill="gold" stroke="black" stroke-width="1" />
<line x1="486.00" y1="512.22" x2="486.00" y2="570.00" stroke="#bbbbbb" />
<circle cx="486.00" cy="512.22" r="4" fill="red" stroke="none" stroke-width="1" />
<circle cx="486.00" cy="570.00" r="4" fill="gold" stroke="black" stroke-width="1" />
<circle cx="496.40" cy="512.22" r="4" fill="navy" stroke="none" stroke-width="1" />
<circle cx="506.80" cy="570.00" r="4" fill="navy" stroke="none" stroke-width="1" />
<line x1="517.20" y1="512.22" x2="517.20" y2="454.44" stroke="#bbbbbb" />
<circle cx="517.20" cy="512.22" r="4" fill="red" stroke="none" stroke-width="1" />
<circle cx="517.20" cy="454.44" r="4" fill="gold" stroke="black" stroke-width="1" />
<line x1="527.60" y1="512.22" x2="527.60" y2="570.00" stroke="#bbbbbb" />
<circle cx="527.60" cy="512.22" r="4" fill="red" stroke="none" stroke-width="1" />
<circle cx="527.60" cy="570.00" r="4" fill="gold" stroke="black" stroke-width="1" />
<line x1="538.00" y1="512.22" x2="538.00" y2="570.00" stroke="#bbbbbb" />
<circle cx="538.00" cy="512.22" r="4" fill="red" stroke="none" stroke-width="1" />
<circle cx="538.00" cy="570.00" r="4" fill="gold" stroke="black" stroke-width="1" />
<circle cx="548.40" cy="512.22" r="4" fill="navy" stroke="none" stroke-width="1" />
<line x1="558.80" y1="223.33" x2="558.80" y2="570.00" stroke="#bbbbbb" />
<circle cx="558.80" cy="223.33" r="4" fill="red" stroke="none" stroke-width="1" />
<circle cx="558.80" cy="570.00" r="4" fill="gold" stroke="black" stroke-width="1" />
<line x1="569.20" y1="454.44" x2="569.20" y2="512.22" stroke="#bbbbbb" />
<circle cx="569.20" cy="454.44" r="4" fill="red" stroke="none" stroke-width="1" />
<circle cx="569.20" cy="512.22" r="4" fill="gold" stroke="black" stroke-width="1" />
<line x1="579.60" y1="396.67" x2="579.60" y2="512.22" stroke="#bbbbbb" />
<circle cx="579.60" cy="396.67" r="4" fill="red" stroke="none" stroke-width="1" />
<circle cx="579.60" cy="512.22" r="4" fill="gold" stroke="black" stroke-width="1" />
<circle cx="590.00" cy="570.00" r="4" fill="navy" stroke="none" stroke-width="1" />
<line x1="600.40" y1="570.00" x2="600.40" y2="396.67" stroke="#bbbbbb" />
<circle cx="600.40" cy="570.00" r="4" fill="red" stroke="none" stroke-width="1" />
<circle cx="600.40" cy="396.67" r="4" fill="gold" stroke="black" stroke-width="1" />
<line x1="610.80" y1="512.22" x2="610.80" y2="570.00" stroke="#bbbbbb" />
<circle cx="610.80" cy="512.22" r="4" fill="red" stroke="none" stroke-width="1" />
<circle cx="610.80" cy="570.00" r="4" fill="gold" stroke="black" stroke-width="1" />
<line x1="621.20" y1="281.11" x2="621.20" y2="570.00" stroke="#bbbbbb" />
<circle cx="621.20" cy="281.11" r="4" fill="red" stroke="none" stroke-width="1" />
<circle cx="621.20" cy="570.00" r="4" fill="gold" stroke="black" stroke-width="1" />
<line x1="631.60" y1="281.11" x2="631.60" y2="570.00" stroke="#bbbbbb" />
<circle cx="631.60" cy="281.11" r="4" fill="red" stroke="none" stroke-width="1" />
<circle cx="631.60" cy="570.00" r="4" fill="gold" stroke="black" stroke-width="1" />
<line x1="642.00" y1="281.11" x2="642.00" y2="454.44" stroke="#bbbbbb" />
<circle cx="642.00" cy="281.11" r="4" fill="red" stroke="none" stroke-width="1" />
<circle cx="642.00" cy="454.44" r="4" fill="gold" stroke="black" stroke-width="1" />
<line x1="652.40" y1="570.00" x2="652.40" y2="512.22" stroke="#bbbbbb" />
<circle cx="652.40" cy="570.00" r="4" fill="red" stroke="none" stroke-width="1" />
<circle cx="652.40" cy="512.22" r="4" fill="gold" stroke="black" stroke-width="1" />
<circle cx="662.80" cy="512.22" r="4" fill="navy" stroke="none" stroke-width="1" />
<line x1="673.20" y1="512.22" x2="673.20" y2="570.00" stroke="#bbbbbb" />
<circle cx="673.20" cy="512.22" r="4" fill="red" stroke="none" stroke-width="1" />
<circle cx="673.20" cy="570.00" r="4" fill="gold" stroke="black" stroke-width="1" />
<line x1="683.60" y1="396.67" x2="683.60" y2="570.00" stroke="#bbbbbb" />
<circle cx="683.60" cy="396.67" r="4" fill="red" stroke="none" stroke-width="1" />
<circle cx="683.60" cy="570.00" r="4" fill="gold" stroke="black" stroke-width="1" />
<line x1="694.00" y1="281.11" x2="694.00" y2="512.22" stroke="#bbbbbb" />
<circle cx="694.00" cy="281.11" r="4" fill="red" stroke="none" stroke-width="1" />
<circle cx="694.00" cy="512.22" r="4" fill="gold" stroke="black" stroke-width="1" />
<line x1="704.40" y1="454.44" x2="704.40" y2="570.00" stroke="#bbbbbb" />
<circle cx="704.40" cy="454.44" r="4" fill="red" stroke="none" stroke-width="1" />
<circle cx="704.40" cy="570.00" r="4" fill="gold" stroke="black" stroke-width="1" />
<line x1="714.80" y1="281.11" x2="714.80" y2="570.00" stroke="#bbbbbb" />
<circle cx="714.80" cy="281.11" r="4" fill="red" stroke="none" stroke-width="1" />
<circle cx="714.80" cy="570.00" r="4" fill="gold" stroke="black" stroke-width="1" />
<line x1="725.20" y1="512.22" x2="725.20" y2="570.00" stroke="#bbbbbb" />
<circle cx="725.20" cy="512.22" r="4" fill="red" stroke="none" stroke-width="1" />
<circle cx="725.20" cy="570.00" r="4" fill="gold" stroke="black" stroke-width="1" />
<line x1="735.60" y1="512.22" x2="735.60" y2="454.44" stroke="#bbbbbb" />
<circle cx="735.60" cy="512.22" r="4" fill="red" stroke="none" stroke-width="1" />
<circle cx="735.60" cy="454.44" r="4" fill="gold" stroke="black" stroke-width="1" />
<line x1="746.00" y1="512.22" x2="746.00" y2="396.67" stroke="#bbbbbb" />
<circle cx="746.00" cy="512.22" r="4" fill="red" stroke="none" stroke-width="1" />
<circle cx="746.00" cy="396.67" r="4" fill="gold" stroke="black" stroke-width="1" />
<line x1="756.40" y1="338.89" x2="756.40" y2="512.22" stroke="#bbbbbb" />
<circle cx="756.40" cy="338.89" r="4" fill="red" stroke="none" stroke-width="1" />
<circle cx="756.40" cy="512.22" r="4" fill="gold" stroke="black" stroke-width="1" />
<line x1="766.80" y1="396.67" x2="766.80" y2="570.00" stroke="#bbbbbb" />
<circle cx="766.80" cy="396.67" r="4" fill="red" stroke="none" stroke-width="1" />
<circle cx="766.80" cy="570.00" r="4" fill="gold" stroke="black" stroke-width="1" />
<line x1="777.20" y1="512.22" x2="777.20" y2="454.44" stroke="#bbbbbb" />
<circle cx="777.20" cy="512.22" r="4" fill="red" stroke="none" stroke-width="1" />
<circle cx="777.20" cy="454.44" r="4" fill="gold" stroke="black" stroke-width="1" />
<circle cx="787.60" cy="570.00" r="4" fill="navy" stroke="none" stroke-width="1" />
<circle cx="798.00" cy="512.22" r="4" fill="navy" stroke="none" stroke-width="1" />
<line x1="808.40" y1="107.78" x2="808.40" y2="512.22" stroke="#bbbbbb" />
<circle cx="808.40" cy="107.78" r="4" fill="red" stroke="none" stroke-width="1" />
<circle cx="808.40" cy="512.22" r="4" fill="gold" stroke="black" stroke-width="1" />
<circle cx="818.80" cy="512.22" r="4" fill="navy" stroke="none" stroke-width="1" />
<line x1="829.20" y1="338.89" x2="829.20" y2="454.44" stroke="#bbbbbb" />
<circle cx="829.20" cy="338.89" r="4" fill="red" stroke="none" stroke-width="1" />
<circle cx="829.20" cy="454.44" r="4" fill="gold" stroke="black" stroke-width="1" />
<line x1="839.60" y1="512.22" x2="839.60" y2="396.67" stroke="#bbbbbb" />
<circle cx="839.60" cy="512.22" r="4" fill="red" stroke="none" stroke-width="1" />
<circle cx="839.60" cy="396.67" r="4" fill="gold" stroke="black" stroke-width="1" />
<line x1="850.00" y1="281.11" x2="850.00" y2="570.00" stroke="#bbbbbb" />
<circle cx="850.00" cy="281.11" r="4" fill="red" stroke="none" stroke-width="1" />
<circle cx="850.00" cy="570.00" r="4" fill="gold" stroke="black" stroke-width="1" />
<line x1="860.40" y1="570.00" x2="860.40" y2="512.22" stroke="#bbbbbb" />
<circle cx="860.40" cy="570.00" r="4" fill="red" stroke="none" stroke-width="1" />
<circle cx="860.40" cy="512.22" r="4" fill="gold" stroke="black" stroke-width="1" />
<line x1="870.80" y1="50.00" x2="870.80" y2="454.44" stroke="#bbbbbb" />
<circle cx="870.80" cy="50.00" r="4" fill="red" stroke="none" stroke-width="1" />
<circle cx="870.80" cy="454.44" r="4" fill="gold" stroke="black" stroke-width="1" />
<line x1="881.20" y1="512.22" x2="881.20" y2="338.89" stroke="#bbbbbb" />
<circle cx="881.20" cy="512.22" r="4" fill="red" stroke="none" stroke-width="1" />
<circle cx="881.20" cy="338.89" r="4" fill="gold" stroke="black" stroke-width="1" />
<circle cx="891.60" cy="570.00" r="4" fill="navy" stroke="none" stroke-width="1" />
<line x1="902.00" y1="281.11" x2="902.00" y2="338.89" stroke="#bbbbbb" />
<circle cx="902.00" cy="281.11" r="4" fill="red" stroke="none" stroke-width="1" />
<circle cx="902.00" cy="338.89" r="4" fill="gold" stroke="black" stroke-width="1" />
<line x1="912.40" y1="338.89" x2="912.40" y2="454.44" stroke="#bbbbbb" />
<circle cx="912.40" cy="338.89" r="4" fill="red" stroke="none" stroke-width="1" />
<circle cx="912.40" cy="454.44" r="4" fill="gold" stroke="black" stroke-width="1" />
<line x1="922.80" y1="107.78" x2="922.80" y2="570.00" stroke="#bbbbbb" />
<circle cx="922.80" cy="107.78" r="4" fill="red" stroke="none" stroke-width="1" />
<circle cx="922.80" cy="570.00" r="4" fill="gold" stroke="black" stroke-width="1" />
<line x1="933.20" y1="165.56" x2="933.20" y2="512.22" stroke="#bbbbbb" />
<circle cx="933.20" cy="165.56" r="4" fill="red" stroke="none" stroke-width="1" />
<circle cx="933.20" cy="512.22" r="4" fill="gold" stroke="black" stroke-width="1" />
<line x1="943.60" y1="223.33" x2="943.60" y2="570.00" stroke="#bbbbbb" />
<circle cx="943.60" cy="223.33" r="4" fill="red" stroke="none" stroke-width="1" />
<circle cx="943.60" cy="570.00" r="4" fill="gold" stroke="black" stroke-width="1" />
<circle cx="954.00" cy="570.00" r="4" fill="navy" stroke="none" stroke-width="1" />
<circle cx="964.40" cy="512.22" r="4" fill="navy" stroke="none" stroke-width="1" />
<circle cx="974.80" cy="570.00" r="4" fill="navy" stroke="none" stroke-width="1" />
<line x1="985.20" y1="107.78" x2="985.20" y2="570.00" stroke="#bbbbbb" />
<circle cx="985.20" cy="107.78" r="4" fill="red" stroke="none" stroke-width="1" />
<circle cx="985.20" cy="570.00" r="4" fill="gold" stroke="black" stroke-width="1" />
<line x1="995.60" y1="281.11" x2="995.60" y2="338.89" stroke="#bbbbbb" />
<circle cx="995.60" cy="281.11" r="4" fill="red" stroke="none" stroke-width="1" />
<circle cx="995.60" cy="338.89" r="4" fill="gold" stroke="black" stroke-width="1" />
<line x1="1006.00" y1="107.78" x2="1006.00" y2="512.22" stroke="#bbbbbb" />
<circle cx="1006.00" cy="107.78" r="4" fill="red" stroke="none" stroke-width="1" />
<circle cx="1006.00" cy="512.22" r="4" fill="gold" stroke="black" stroke-width="1" />
<circle cx="1016.40" cy="570.00" r="4" fill="navy" stroke="none" stroke-width="1" />
<line x1="1026.80" y1="338.89" x2="1026.80" y2="512.22" stroke="#bbbbbb" />
<circle cx="1026.80" cy="338.89" r="4" fill="red" stroke="none" stroke-width="1" />
<circle cx="1026.80" cy="512.22" r="4" fill="gold" stroke="black" stroke-width="1" />
<line x1="1037.20" y1="107.78" x2="1037.20" y2="512.22" stroke="#bbbbbb" />
<circle cx="1037.20" cy="107.78" r="4" fill="red" stroke="none" stroke-width="1" />
<circle cx="1037.20" cy="512.22" r="4" fill="gold" stroke="black" stroke-width="1" />
<line x1="1047.60" y1="281.11" x2="1047.60" y2="570.00" stroke="#bbbbbb" />
<circle cx="1047.60" cy="281.11" r="4" fill="red" stroke="none" stroke-width="1" />
<circle cx="1047.60" cy="570.00" r="4" fill="gold" stroke="black" stroke-width="1" />
<line x1="1058.00" y1="512.22" x2="1058.00" y2="454.44" stroke="#bbbbbb" />
<circle cx="1058.00" cy="512.22" r="4" fill="red" stroke="none" stroke-width="1" />
<circle cx="1058.00" cy="454.44" r="4" fill="gold" stroke="black" stroke-width="1" />
<line x1="1068.40" y1="454.44" x2="1068.40" y2="396.67" stroke="#bbbbbb" />
<circle cx="1068.40" cy="454.44" r="4" fill="red" stroke="none" stroke-width="1" />
<circle cx="1068.40" cy="396.67" r="4" fill="gold" stroke="black" stroke-width="1" />
<line x1="1078.80" y1="512.22" x2="1078.80" y2="454.44" stroke="#bbbbbb" />
<circle cx="1078.80" cy="512.22" r="4" fill="red" stroke="none" stroke-width="1" />
<circle cx="1078.80" cy="454.44" r="4" fill="gold" stroke="black" stroke-width="1" />
<line x1="1089.20" y1="454.44" x2="1089.20" y2="512.22" stroke="#bbbbbb" />
<circle cx="1089.20" cy="454.44" r="4" fill="red" stroke="none" stroke-width="1" />
<circle cx="1089.20" cy="512.22" r="4" fill="gold" stroke="black" stroke-width="1" />
<line x1="1099.60" y1="454.44" x2="1099.60" y2="570.00" stroke="#bbbbbb" />
<circle cx="1099.60" cy="454.44" r="4" fill="red" stroke="none" stroke-width="1" />
<circle cx="1099.60" cy="570.00" r="4" fill="gold" stroke="black" stroke-width="1" />
<line x1="1110.00" y1="454.44" x2="1110.00" y2="338.89" stroke="#bbbbbb" />
<circle cx="1110.00" cy="454.44" r="4" fill="red" stroke="none" stroke-width="1" />
<circle cx="1110.00" cy="338.89" r="4" fill="gold" stroke="black" stroke-width="1" />
<line x1="1120.40" y1="512.22" x2="1120.40" y2="281.11" stroke="#bbbbbb" />
<circle cx="1120.40" cy="512.22" r="4" fill="red" stroke="none" stroke-width="1" />
<circle cx="1120.40" cy="281.11" r="4" fill="gold" stroke="black" stroke-width="1" />
<line x1="1130.80" y1="396.67" x2="1130.80" y2="570.00" stroke="#bbbbbb" />
<circle cx="1130.80" cy="396.67" r="4" fill="red" stroke="none" stroke-width="1" />
<circle cx="1130.80" cy="570.00" r="4" fill="gold" stroke="black" stroke-width="1" />
<circle cx="1141.20" cy="570.00" r="4" fill="navy" stroke="none" stroke-width="1" />
<circle cx="1151.60" cy="223.33" r="4" fill="navy" stroke="none" stroke-width="1" />
<circle cx="1162.00" cy="570.00" r="4" fill="navy" stroke="none" stroke-width="1" />
<line x1="1172.40" y1="223.33" x2="1172.40" y2="396.67" stroke="#bbbbbb" />
<circle cx="1172.40" cy="223.33" r="4" fill="red" stroke="none" stroke-width="1" />
<circle cx="1172.40" cy="396.67" r="4" fill="gold" stroke="black" stroke-width="1" />
<line x1="1182.80" y1="107.78" x2="1182.80" y2="570.00" stroke="#bbbbbb" />
<circle cx="1182.80" cy="107.78" r="4" fill="red" stroke="none" stroke-width="1" />
<circle cx="1182.80" cy="570.00" r="4" fill="gold" stroke="black" stroke-width="1" />
<line x1="1193.20" y1="512.22" x2="1193.20" y2="570.00" stroke="#bbbbbb" />
<circle cx="1193.20" cy="512.22" r="4" fill="red" stroke="none" stroke-width="1" />
<circle cx="1193.20" cy="570.00" r="4" fill="gold" stroke="black" stroke-width="1" />
<line x1="1203.60" y1="281.11" x2="1203.60" y2="570.00" stroke="#bbbbbb" />
<circle cx="1203.60" cy="281.11" r="4" fill="red" stroke="none" stroke-width="1" />
<circle cx="1203.60" cy="570.00" r="4" fill="gold" stroke="black" stroke-width="1" />
<line x1="1214.00" y1="107.78" x2="1214.00" y2="570.00" stroke="#bbbbbb" />
<circle cx="1214.00" cy="107.78" r="4" fill="red" stroke="none" stroke-width="1" />
<circle cx="1214.00" cy="570.00" r="4" fill="gold" stroke="black" stroke-width="1" />
<line x1="1224.40" y1="338.89" x2="1224.40" y2="570.00" stroke="#bbbbbb" />
<circle cx="1224.40" cy="338.89" r="4" fill="red" stroke="none" stroke-width="1" />
<circle cx="1224.40" cy="570.00" r="4" fill="gold" stroke="black" stroke-width="1" />
<line x1="1234.80" y1="165.56" x2="1234.80" y2="338.89" stroke="#bbbbbb" />
<circle cx="1234.80" cy="165.56" r="4" fill="red" stroke="none" stroke-width="1" />
<circle cx="1234.80" cy="338.89" r="4" fill="gold" stroke="black" stroke-width="1" />
<line x1="1245.20" y1="512.22" x2="1245.20" y2="454.44" stroke="#bbbbbb" />
<circle cx="1245.20" cy="512.22" r="4" fill="red" stroke="none" stroke-width="1" />
<circle cx="1245.20" cy="454.44" r="4" fill="gold" stroke="black" stroke-width="1" />
<circle cx="1255.60" cy="512.22" r="4" fill="navy" stroke="none" stroke-width="1" />
<line x1="1266.00" y1="165.56" x2="1266.00" y2="454.44" stroke="#bbbbbb" />
<circle cx="1266.00" cy="165.56" r="4" fill="red" stroke="none" stroke-width="1" />
<circle cx="1266.00" cy="454.44" r="4" fill="gold" stroke="black" stroke-width="1" />
<circle cx="1276.40" cy="570.00" r="4" fill="navy" stroke="none" stroke-width="1" />
<line x1="1286.80" y1="512.22" x2="1286.80" y2="454.44" stroke="#bbbbbb" />
<circle cx="1286.80" cy="512.22" r="4" fill="red" stroke="none" stroke-width="1" />
<circle cx="1286.80" cy="454.44" r="4" fill="gold" stroke="black" stroke-width="1" />
<circle cx="1297.20" cy="570.00" r="4" fill="navy" stroke="none" stroke-width="1" />
<line x1="1307.60" y1="107.78" x2="1307.60" y2="570.00" stroke="#bbbbbb" />
<circle cx="1307.60" cy="107.78" r="4" fill="red" stroke="none" stroke-width="1" />
<circle cx="1307.60" cy="570.00" r="4" fill="gold" stroke="black" stroke-width="1" />
<line x1="1318.00" y1="512.22" x2="1318.00" y2="570.00" stroke="#bbbbbb" />
<circle cx="1318.00" cy="512.22" r="4" fill="red" stroke="none" stroke-width="1" />
<circle cx="1318.00" cy="570.00" r="4" fill="gold" stroke="black" stroke-width="1" />
<line x1="1328.40" y1="396.67" x2="1328.40" y2="570.00" stroke="#bbbbbb" />
<circle cx="1328.40" cy="396.67" r="4" fill="red" stroke="none" stroke-width="1" />
<circle cx="1328.40" cy="570.00" r="4" fill="gold" stroke="black" stroke-width="1" />
<line x1="1338.80" y1="396.67" x2="1338.80" y2="570.00" stroke="#bbbbbb" />
<circle cx="1338.80" cy="396.67" r="4" fill="red" stroke="none" stroke-width="1" />
<circle cx="1338.80" cy="570.00" r="4" fill="gold" stroke="black" stroke-width="1" />
<line x1="1349.20" y1="107.78" x2="1349.20" y2="396.67" stroke="#bbbbbb" />
<circle cx="1349.20" cy="107.78" r="4" fill="red" stroke="none" stroke-width="1" />
<circle cx="1349.20" cy="396.67" r="4" fill="gold" stroke="black" stroke-width="1" />
<line x1="1359.60" y1="281.11" x2="1359.60" y2="396.67" stroke="#bbbbbb" />
<circle cx="1359.60" cy="281.11" r="4" fill="red" stroke="none" stroke-width="1" />
<circle cx="1359.60" cy="396.67" r="4" fill="gold" stroke="black" stroke-width="1" />
<line x1="1370.00" y1="281.11" x2="1370.00" y2="454.44" stroke="#bbbbbb" />
<circle cx="1370.00" cy="281.11" r="4" fill="red" stroke="none" stroke-width="1" />
<circle cx="1370.00" cy="454.44" r="4" fill="gold" stroke="black" stroke-width="1" />
<circle cx="1100.00" cy="70.00" r="4" fill="navy" stroke="none" stroke-width="1" />
<text x="1114.00" y="74.00" font-size="12" text-anchor="start" font-family="Arial">GT step (correct prediction)</text>
<circle cx="1100.00" cy="94.00" r="4" fill="red" stroke="none" stroke-width="1" />
<text x="1114.00" y="98.00" font-size="12" text-anchor="start" font-family="Arial">GT step (wrong prediction)</text>
<circle cx="1100.00" cy="118.00" r="4" fill="gold" stroke="black" stroke-width="1" />
<text x="1114.00" y="122.00" font-size="12" text-anchor="start" font-family="Arial">Predicted step (wrong prediction)</text>
</svg>